<svg width="350" height="91" viewBox="0 0 350 91" fill="none" xmlns="http://www.w3.org/2000/svg">
<path d="M45.0169 0C36.1134 0 27.4099 2.6402 20.0069 7.58672C12.6039 12.5332 6.83396 19.5639 3.42673 27.7897C0.0195059 36.0153 -0.87198 45.0669 0.865007 53.7992C2.60199 62.5316 6.88944 70.5531 13.1852 76.8485C19.4809 83.1443 27.5021 87.4319 36.2345 89.1689C44.9671 90.9058 54.0184 90.0144 62.2441 86.607C70.47 83.1999 77.5008 77.4301 82.4472 70.0271C87.3937 62.6241 90.0337 53.9203 90.0337 45.0169C90.0337 33.0776 85.2911 21.6275 76.8489 13.1852C68.4063 4.74283 56.9561 0 45.0169 0ZM45.0169 83.1083C37.4834 83.1083 30.1187 80.8742 23.8546 76.6886C17.5905 72.503 12.7083 66.554 9.82522 59.5939C6.9422 52.6335 6.18787 44.9747 7.65761 37.5857C9.12738 30.1967 12.7552 23.4095 18.0824 18.0823C23.4095 12.7552 30.1968 9.12734 37.5857 7.65761C44.9747 6.18783 52.6335 6.94217 59.5939 9.82522C66.554 12.7082 72.503 17.5905 76.6886 23.8546C80.8742 30.1186 83.1083 37.483 83.1083 45.0169C83.1083 55.1194 79.0951 64.8079 71.9515 71.9515C64.8079 79.0951 55.1194 83.1083 45.0169 83.1083Z" fill="white"/>
<path d="M26.978 44.1167C27.3 44.4411 27.683 44.6989 28.1049 44.8745C28.5269 45.0505 28.9795 45.1408 29.4367 45.1408C29.8938 45.1408 30.3464 45.0505 30.7684 44.8745C31.1904 44.6989 31.5734 44.4411 31.8953 44.1167L40.033 35.979C41.5619 34.4279 42.4945 32.3869 42.6659 30.2156C42.8373 28.0444 42.2367 25.8823 40.9702 24.1105C39.7033 22.3387 37.8519 21.071 35.7418 20.5309C33.6319 19.9907 31.3989 20.2128 29.4367 21.1579C27.4714 20.1545 25.2112 19.8899 23.0672 20.4123C20.9233 20.9347 19.0382 22.2093 17.7548 24.0044C16.4714 25.7995 15.8751 27.9956 16.0743 30.1932C16.2736 32.3908 17.2551 34.4439 18.8404 35.979L26.978 44.1167ZM23.723 27.7027C23.9331 27.4827 24.1857 27.3076 24.4654 27.188C24.7452 27.0684 25.0462 27.0067 25.3505 27.0067C25.6547 27.0067 25.9558 27.0684 26.2356 27.188C26.5153 27.3076 26.7679 27.4827 26.978 27.7027C27.3 28.0273 27.683 28.2849 28.1049 28.4607C28.5269 28.6365 28.9795 28.727 29.4367 28.727C29.8938 28.727 30.3464 28.6365 30.7684 28.4607C31.1904 28.2849 31.5734 28.0273 31.8953 27.7027C32.1079 27.487 32.3613 27.3158 32.6407 27.1989C32.9202 27.082 33.2198 27.0218 33.5227 27.0218C33.8256 27.0218 34.1255 27.082 34.4049 27.1989C34.6842 27.3158 34.9377 27.487 35.1504 27.7027C35.3702 27.9129 35.5455 28.1655 35.6652 28.4452C35.7846 28.7249 35.8464 29.026 35.8464 29.3303C35.8464 29.6345 35.7846 29.9356 35.6652 30.2153C35.5455 30.495 35.3702 30.7476 35.1504 30.9578L29.4367 36.7755L23.723 31.1656C23.503 30.9554 23.3279 30.7028 23.2082 30.4231C23.0886 30.1434 23.0269 29.8422 23.0269 29.538C23.0269 29.2338 23.0886 28.9327 23.2082 28.653C23.3279 28.3732 23.503 28.1206 23.723 27.9105V27.7027Z" fill="white"/>
<path d="M58.1432 44.1167C58.4651 44.4411 58.8481 44.6989 59.2701 44.8745C59.692 45.0505 60.1447 45.1408 60.6017 45.1408C61.059 45.1408 61.5117 45.0505 61.9337 44.8745C62.3556 44.6989 62.7383 44.4411 63.0605 44.1167L71.1982 35.979C72.7271 34.4279 73.6596 32.3869 73.831 30.2156C74.0024 28.0444 73.4019 25.8823 72.1353 24.1105C70.8685 22.3387 69.0171 21.071 66.9069 20.5309C64.7971 19.9907 62.564 20.2128 60.6017 21.1579C58.6365 20.1545 56.3762 19.8899 54.2323 20.4123C52.0885 20.9347 50.2034 22.2093 48.9199 24.0044C47.6367 25.7995 47.0403 27.9956 47.2395 30.1932C47.4388 32.3908 48.4204 34.4439 50.0055 35.979L58.1432 44.1167ZM54.8882 27.7027C55.0982 27.4827 55.3507 27.3076 55.6307 27.188C55.9104 27.0684 56.2113 27.0067 56.5155 27.0067C56.8197 27.0067 57.121 27.0684 57.4007 27.188C57.6803 27.3076 57.9329 27.4827 58.1432 27.7027C58.4651 28.0273 58.8481 28.2849 59.2701 28.4607C59.692 28.6365 60.1447 28.727 60.6017 28.727C61.059 28.727 61.5117 28.6365 61.9337 28.4607C62.3556 28.2849 62.7383 28.0273 63.0605 27.7027C63.2731 27.487 63.5263 27.3158 63.8057 27.1989C64.0853 27.082 64.385 27.0218 64.6879 27.0218C64.9908 27.0218 65.2907 27.082 65.5701 27.1989C65.8494 27.3158 66.1029 27.487 66.3155 27.7027C66.5353 27.9129 66.7107 28.1655 66.8301 28.4452C66.9498 28.7249 67.0116 29.026 67.0116 29.3303C67.0116 29.6345 66.9498 29.9356 66.8301 30.2153C66.7107 30.495 66.5353 30.7476 66.3155 30.9578L60.6017 36.7755L54.8882 31.1656C54.6681 30.9554 54.4931 30.7028 54.3733 30.4231C54.2536 30.1434 54.1921 29.8422 54.1921 29.538C54.1921 29.2338 54.2536 28.9327 54.3733 28.653C54.4931 28.3732 54.6681 28.1206 54.8882 27.9105V27.7027Z" fill="white"/>
<path d="M69.257 48.4801C68.3385 48.4801 67.4579 48.8451 66.8083 49.4944C66.159 50.1437 65.7943 51.0246 65.7943 51.9431C65.7943 61.5004 56.479 69.2573 45.017 69.2573C33.555 69.2573 24.2401 61.5004 24.2401 51.9431C24.2401 51.0246 23.8753 50.1437 23.2258 49.4944C22.5765 48.8451 21.6957 48.4801 20.7773 48.4801C19.8589 48.4801 18.9781 48.8451 18.3287 49.4944C17.6793 50.1437 17.3144 51.0246 17.3144 51.9431C17.3144 65.3095 29.746 76.1831 45.017 76.1831C60.2882 76.1831 72.72 65.3095 72.72 51.9431C72.72 51.0246 72.355 50.1437 71.7057 49.4944C71.0564 48.8451 70.1755 48.4801 69.257 48.4801Z" fill="white"/>
<path d="M140.428 59.2684H121.423L117.529 70.0539H107.895L125.844 22.8503H136.403L154.22 70.0539H144.322L140.428 59.2684ZM124.458 50.8795H137.393L130.925 33.0367L124.458 50.8795Z" fill="white"/>
<path d="M176.57 61.5322C178.462 61.5322 180.266 61.2437 181.982 60.6667C183.698 60.0452 185.193 59.113 186.469 57.8703C187.745 56.6277 188.757 55.0739 189.505 53.2098C190.253 51.3014 190.627 49.0598 190.627 46.4855C190.627 43.9112 190.253 41.6918 189.505 39.8277C188.757 37.919 187.745 36.3434 186.469 35.1007C185.237 33.858 183.764 32.9258 182.048 32.3044C180.332 31.683 178.528 31.3723 176.636 31.3723H169.311V61.5322H176.57ZM160.204 70.0539V22.8503H176.966C180.31 22.8503 183.389 23.383 186.205 24.4482C189.021 25.5134 191.44 27.0669 193.464 29.1087C195.532 31.106 197.138 33.5695 198.282 36.4987C199.469 39.4283 200.064 42.7572 200.064 46.4855C200.064 50.2138 199.469 53.5427 198.282 56.4723C197.138 59.4015 195.532 61.8649 193.464 63.8622C191.397 65.8598 188.955 67.391 186.139 68.4563C183.324 69.5214 180.244 70.0539 176.9 70.0539H160.204Z" fill="white"/>
<path d="M224.324 44.3551C226.612 44.3551 228.394 43.7558 229.67 42.5573C230.99 41.3147 231.649 39.6723 231.649 37.6305C231.649 35.5001 230.99 33.8358 229.67 32.6373C228.394 31.4389 226.612 30.8397 224.324 30.8397H217.131V44.3551H224.324ZM217.065 52.2778V70.0539H207.958V22.8503H225.446C227.734 22.8503 229.823 23.2276 231.715 23.9821C233.607 24.6923 235.235 25.7132 236.599 27.0447C237.962 28.3319 238.996 29.8854 239.7 31.7052C240.448 33.4806 240.822 35.4337 240.822 37.5641C240.822 39.6945 240.448 41.6696 239.7 43.4896C238.996 45.3092 237.962 46.8627 236.599 48.1498C235.235 49.437 233.607 50.4578 231.715 51.2125C229.823 51.9226 227.734 52.2778 225.446 52.2778H217.065Z" fill="white"/>
<path d="M247.785 70.0539V22.8503H256.892V61.2656H277.745V70.0539H247.785Z" fill="white"/>
<path d="M284.052 70.0533V37.2972H292.829V70.0533H284.052ZM282.996 26.578C282.996 25.0246 283.524 23.7152 284.58 22.65C285.636 21.5847 286.912 21.0521 288.408 21.0521C289.947 21.0521 291.223 21.5847 292.235 22.65C293.291 23.7152 293.819 25.0246 293.819 26.578C293.819 28.0428 293.291 29.3078 292.235 30.373C291.223 31.4382 289.947 31.9709 288.408 31.9709C286.912 31.9709 285.636 31.4382 284.58 30.373C283.524 29.3078 282.996 28.0428 282.996 26.578Z" fill="white"/>
<path d="M306.977 59.2681C307.065 60.5552 307.593 61.7092 308.561 62.7301C309.529 63.751 310.981 64.2616 312.916 64.2616C314.368 64.2616 315.446 63.9509 316.15 63.3294C316.854 62.6637 317.206 61.8869 317.206 60.9991C317.206 60.2445 316.942 59.6011 316.414 59.0685C315.886 58.4915 314.984 58.0699 313.708 57.8033L309.419 56.8047C306.251 56.0945 303.942 54.8741 302.49 53.1431C301.038 51.3676 300.312 49.3258 300.312 47.0177C300.312 45.553 300.62 44.1772 301.236 42.89C301.852 41.5584 302.688 40.4266 303.744 39.4944C304.843 38.518 306.119 37.7414 307.571 37.1644C309.067 36.5874 310.695 36.2989 312.454 36.2989C314.742 36.2989 316.678 36.6316 318.262 37.2976C319.846 37.9187 321.121 38.7178 322.089 39.6942C323.101 40.6706 323.849 41.7138 324.333 42.8233C324.817 43.8887 325.103 44.8651 325.191 45.7528L317.866 47.4171C317.778 46.9291 317.624 46.4407 317.404 45.9527C317.228 45.4198 316.92 44.9318 316.48 44.4879C316.04 44.0441 315.49 43.6888 314.83 43.4226C314.214 43.1563 313.444 43.0232 312.52 43.0232C311.377 43.0232 310.387 43.3339 309.551 43.9551C308.759 44.5766 308.363 45.3534 308.363 46.2854C308.363 47.0845 308.627 47.7279 309.155 48.2163C309.727 48.7046 310.453 49.0373 311.333 49.2149L315.952 50.2135C319.164 50.8792 321.561 52.1222 323.145 53.9419C324.773 55.7619 325.587 57.87 325.587 60.2667C325.587 61.5983 325.323 62.9077 324.795 64.1949C324.311 65.482 323.541 66.6361 322.485 67.6569C321.429 68.6778 320.11 69.4989 318.526 70.1204C316.942 70.7419 315.094 71.0523 312.982 71.0523C310.519 71.0523 308.451 70.6974 306.779 69.9872C305.107 69.2771 303.744 68.4116 302.688 67.3907C301.632 66.3698 300.84 65.2825 300.312 64.1285C299.828 62.93 299.542 61.8646 299.454 60.9327L306.977 59.2681Z" fill="white"/>
<path d="M343.468 37.2978H350V45.1538H343.468V58.8689C343.468 60.2892 343.775 61.2878 344.39 61.8649C345.051 62.3977 346.019 62.664 347.295 62.664C347.821 62.664 348.351 62.6417 348.878 62.5972C349.405 62.5528 349.781 62.4863 350 62.3977V69.7212C349.604 69.8985 348.989 70.0761 348.152 70.2537C347.36 70.4314 346.327 70.52 345.051 70.52C341.881 70.52 339.376 69.6322 337.528 67.857C335.679 66.0815 334.757 63.5959 334.757 60.4001V45.1538H328.882V37.2978H330.531C332.248 37.2978 333.501 36.8094 334.293 35.833C335.13 34.8121 335.549 33.5695 335.549 32.1046V27.5108H343.468V37.2978Z" fill="white"/>
</svg>
