<svg width="80" height="80" viewBox="0 0 80 80" fill="none" xmlns="http://www.w3.org/2000/svg">
<path d="M40 0C32.0888 0 24.3552 2.34596 17.7772 6.74122C11.1993 11.1365 6.07236 17.3836 3.04484 24.6927C0.0173321 32.0016 -0.774803 40.0444 0.768607 47.8036C2.31202 55.5627 6.12165 62.6903 11.7158 68.2841C17.3099 73.8782 24.4372 77.6881 32.1964 79.2314C39.9558 80.7748 47.9984 79.9827 55.3073 76.9551C62.6166 73.9277 68.8638 68.8009 73.259 62.2229C77.6542 55.645 80 47.9111 80 39.9999C80 29.3913 75.7859 19.2172 68.2845 11.7157C60.7829 4.21426 50.6087 0 40 0ZM40 73.8463C33.3061 73.8463 26.7621 71.8611 21.1961 68.142C15.6301 64.4229 11.292 59.1368 8.73026 52.9524C6.16853 46.7677 5.49827 39.9625 6.80421 33.397C8.11019 26.8314 11.3337 20.8006 16.0672 16.0671C20.8007 11.3337 26.8315 8.11014 33.397 6.8042C39.9625 5.49823 46.7678 6.1685 52.9525 8.73024C59.1369 11.292 64.423 15.6301 68.1421 21.1961C71.8612 26.7621 73.8464 33.3057 73.8464 39.9999C73.8464 48.9766 70.2804 57.5854 63.9329 63.9328C57.5854 70.2803 48.9767 73.8463 40 73.8463Z" fill="black"/>
<path d="M24.2442 39.0802C24.5269 39.3715 24.8633 39.603 25.2339 39.7607C25.6046 39.9187 26.0022 39.9998 26.4037 39.9998C26.8052 39.9998 27.2027 39.9187 27.5734 39.7607C27.944 39.603 28.2804 39.3715 28.5632 39.0802L35.7109 31.7733C37.0537 30.3806 37.8729 28.548 38.0234 26.5984C38.174 24.6488 37.6465 22.7074 36.534 21.1165C35.4213 19.5257 33.7951 18.3874 31.9417 17.9024C30.0886 17.4174 28.1272 17.6168 26.4037 18.4654C24.6775 17.5644 22.6923 17.3268 20.8092 17.7959C18.9261 18.265 17.2703 19.4095 16.1431 21.0213C15.0158 22.6331 14.4921 24.605 14.667 26.5782C14.842 28.5515 15.7041 30.395 17.0965 31.7733L24.2442 39.0802ZM21.3851 24.342C21.5697 24.1445 21.7916 23.9873 22.0373 23.8799C22.283 23.7724 22.5474 23.7171 22.8146 23.7171C23.0818 23.7171 23.3463 23.7724 23.592 23.8799C23.8377 23.9873 24.0596 24.1445 24.2442 24.342C24.5269 24.6335 24.8633 24.8648 25.2339 25.0226C25.6046 25.1805 26.0022 25.2618 26.4037 25.2618C26.8052 25.2618 27.2027 25.1805 27.5734 25.0226C27.944 24.8648 28.2804 24.6335 28.5632 24.342C28.7499 24.1484 28.9725 23.9946 29.2179 23.8896C29.4634 23.7846 29.7265 23.7306 29.9926 23.7306C30.2586 23.7306 30.5221 23.7846 30.7675 23.8896C31.0128 23.9946 31.2355 24.1484 31.4222 24.342C31.6153 24.5307 31.7693 24.7575 31.8745 25.0087C31.9793 25.2599 32.0336 25.5302 32.0336 25.8034C32.0336 26.0766 31.9793 26.3469 31.8745 26.5981C31.7693 26.8493 31.6153 27.0761 31.4222 27.2648L26.4037 32.4885L21.3851 27.4513C21.1919 27.2626 21.0381 27.0358 20.933 26.7847C20.8279 26.5335 20.7737 26.2631 20.7737 25.9899C20.7737 25.7168 20.8279 25.4464 20.933 25.1953C21.0381 24.9441 21.1919 24.7173 21.3851 24.5286V24.342Z" fill="black"/>
<path d="M51.5614 39.0802C51.8441 39.3715 52.1805 39.603 52.5511 39.7607C52.9218 39.9187 53.3194 39.9998 53.7208 39.9998C54.1224 39.9998 54.5201 39.9187 54.8907 39.7607C55.2613 39.603 55.5975 39.3715 55.8805 39.0802L63.0281 31.7733C64.371 30.3806 65.1901 28.548 65.3406 26.5984C65.4912 24.6488 64.9637 22.7074 63.8512 21.1165C62.7385 19.5257 61.1123 18.3874 59.2589 17.9024C57.4058 17.4174 55.4443 17.6168 53.7208 18.4654C51.9946 17.5644 50.0093 17.3268 48.1263 17.7959C46.2433 18.265 44.5875 19.4095 43.4601 21.0213C42.333 22.6331 41.8093 24.605 41.9842 26.5782C42.1592 28.5515 43.0214 30.395 44.4137 31.7733L51.5614 39.0802ZM48.7024 24.342C48.8868 24.1445 49.1086 23.9873 49.3545 23.8799C49.6002 23.7724 49.8645 23.7171 50.1317 23.7171C50.3989 23.7171 50.6635 23.7724 50.9092 23.8799C51.1548 23.9873 51.3766 24.1445 51.5614 24.342C51.8441 24.6335 52.1805 24.8648 52.5511 25.0226C52.9218 25.1805 53.3194 25.2618 53.7208 25.2618C54.1224 25.2618 54.5201 25.1805 54.8907 25.0226C55.2613 24.8648 55.5975 24.6335 55.8805 24.342C56.0672 24.1484 56.2896 23.9946 56.5349 23.8896C56.7806 23.7846 57.0438 23.7306 57.3098 23.7306C57.5759 23.7306 57.8393 23.7846 58.0847 23.8896C58.33 23.9946 58.5527 24.1484 58.7395 24.342C58.9325 24.5307 59.0865 24.7575 59.1914 25.0087C59.2965 25.2599 59.3508 25.5302 59.3508 25.8034C59.3508 26.0766 59.2965 26.3469 59.1914 26.5981C59.0865 26.8493 58.9325 27.0761 58.7395 27.2648L53.7208 32.4885L48.7024 27.4513C48.509 27.2626 48.3553 27.0358 48.2501 26.7847C48.145 26.5335 48.091 26.2631 48.091 25.9899C48.091 25.7168 48.145 25.4464 48.2501 25.1953C48.3553 24.9441 48.509 24.7173 48.7024 24.5286V24.342Z" fill="black"/>
<path d="M61.3411 42.9268C60.5324 42.9268 59.7572 43.2482 59.1852 43.8198C58.6136 44.3915 58.2925 45.167 58.2925 45.9757C58.2925 54.3901 50.0911 61.2195 39.9997 61.2195C29.9082 61.2195 21.7071 54.3901 21.7071 45.9757C21.7071 45.167 21.3859 44.3915 20.8141 43.8198C20.2424 43.2482 19.4669 42.9268 18.6583 42.9268C17.8498 42.9268 17.0743 43.2482 16.5025 43.8198C15.9308 44.3915 15.6096 45.167 15.6096 45.9757C15.6096 57.7438 26.5547 67.317 39.9997 67.317C53.4447 67.317 64.3901 57.7438 64.3901 45.9757C64.3901 45.167 64.0687 44.3915 63.497 43.8198C62.9253 43.2482 62.1498 42.9268 61.3411 42.9268Z" fill="black"/>
</svg>
