<svg width="350" height="41" viewBox="0 0 350 41" fill="none" xmlns="http://www.w3.org/2000/svg">
<path fill-rule="evenodd" clip-rule="evenodd" d="M13.3802 35.6091C23.1287 35.6091 29.352 28.9222 29.352 20.2832V20.1729C29.352 11.5339 23.1287 4.73673 13.3802 4.73673H4.35042V35.6091H13.3802ZM0 0.66906H13.3802C25.4978 0.66906 33.8678 9.08378 33.8678 20.0608V20.1711C33.8678 31.1518 25.4978 39.6768 13.3802 39.6768H0V0.66906ZM45.7759 0.66906H73.6391V4.67975H50.1263V17.9985H71.1653V22.011H50.1245V35.6642H73.9167V39.6768H45.774V0.66906H45.7759ZM82.8895 33.9934L85.5876 30.7602C89.6072 34.4401 93.4614 36.2782 98.8061 36.2782C103.982 36.2782 107.395 33.4916 107.395 29.6464V29.5361C107.395 25.9132 105.469 23.8509 97.3707 22.1231C88.5063 20.1711 84.4315 17.2743 84.4315 10.8649V10.7546C84.4315 4.6246 89.7726 0.112123 97.0987 0.112123C102.715 0.112123 106.735 1.72779 110.644 4.90399L108.112 8.3026C104.531 5.34881 100.953 4.06767 96.9884 4.06767C91.9745 4.06767 88.782 6.85419 88.782 10.3649V10.4752C88.782 14.1532 90.7669 16.2155 99.2454 18.0536C107.836 19.9505 111.8 23.1267 111.8 29.0894V29.1997C111.8 35.8885 106.294 40.2337 98.6407 40.2337C92.5277 40.2337 87.5138 38.1714 82.8895 33.9934ZM123.677 39.6786H128.028V0.667223H123.677V39.6749V39.6786ZM140.21 20.285V20.1747C140.21 9.47162 147.973 0 159.537 0C166.036 0 170.056 1.89322 173.91 5.18154L171.105 8.52317C168.132 5.90391 164.827 4.06583 159.376 4.06583C150.838 4.06583 144.725 11.3667 144.725 20.0608V20.1711C144.725 29.4773 150.618 36.3866 159.98 36.3866C164.386 36.3866 168.461 34.6588 171.105 32.4862V22.7903H159.376V18.8348H175.29V34.3813C171.71 37.6126 166.314 40.3458 159.815 40.3458C147.699 40.3458 140.21 31.4293 140.21 20.285ZM188.226 0.66906H192.299L216.587 31.9311V0.66906H220.827V39.6768H217.357L192.466 7.68868V39.6786H188.226V0.66906ZM234.373 0.66906H242.857V31.876H262.076V39.6768H234.373V0.66906ZM293.408 23.3491L288.287 10.6995L283.167 23.3491H293.408ZM284.488 0.387834H292.309L308.83 39.6786H299.962L296.437 30.9275H280.138L276.611 39.6768H267.965L284.488 0.387834ZM335.57 32.1535C339.318 32.1535 341.575 30.8172 341.575 27.9186V27.8083C341.575 25.189 339.649 23.5734 335.298 23.5734H325.493V32.1535H335.57ZM333.315 16.4379C337.057 16.4379 339.428 15.2119 339.428 12.3151V12.2048C339.428 9.64072 337.443 8.19048 333.863 8.19048H325.493V16.4379H333.315ZM317.233 0.667223H335.133C339.535 0.667223 343.005 1.89506 345.21 4.12281C346.971 5.90575 347.853 8.08019 347.853 10.7546V10.8649C347.853 15.2708 345.539 17.7209 342.786 19.2833C347.247 21.0111 350 23.6285 350 28.867V28.9773C350 36.109 344.273 39.6768 335.57 39.6768H317.233V0.667223Z" fill="white"/>
</svg>
