<svg width="78" height="47" viewBox="0 0 78 47" fill="none" xmlns="http://www.w3.org/2000/svg">
<path d="M6.175 41.21H16.445C17.1383 41.21 18.005 41.1667 19.045 41.08C20.085 40.95 21.19 40.69 22.36 40.3C23.53 39.8667 24.6783 39.26 25.805 38.48C26.975 37.7 28.015 36.6383 28.925 35.295C29.835 33.9517 30.5717 32.2833 31.135 30.29C31.7417 28.2533 32.045 25.805 32.045 22.945C32.045 20.1717 31.7633 17.7017 31.2 15.535C30.68 13.325 29.7917 11.4617 28.535 9.945C27.3217 8.385 25.74 7.215 23.79 6.435C21.84 5.61167 19.435 5.2 16.575 5.2H6.175V41.21ZM0 0H15.925C23.075 0 28.5783 1.82 32.435 5.46C36.2917 9.1 38.22 14.6467 38.22 22.1C38.22 26 37.7867 29.4667 36.92 32.5C36.0533 35.49 34.71 38.025 32.89 40.105C31.07 42.1417 28.7517 43.7017 25.935 44.785C23.1183 45.8683 19.7817 46.41 15.925 46.41H0V0Z" fill="black"/>
<path d="M45.1816 0H55.3866V37.83H78.0066V46.41H45.1816V0Z" fill="black"/>
</svg>
